<svg width="20" height="21" viewBox="0 0 20 21" fill="none" xmlns="http://www.w3.org/2000/svg">
<path d="M10 18.8329V10.4996M10 10.4996L2.74167 6.33293M10 10.4996L17.2583 6.33293M6.25 4.05793L13.75 8.34959M9.16667 18.6079C9.42003 18.7542 9.70744 18.8312 10 18.8312C10.2926 18.8312 10.58 18.7542 10.8333 18.6079L16.6667 15.2746C16.9198 15.1285 17.13 14.9183 17.2763 14.6653C17.4225 14.4122 17.4997 14.1252 17.5 13.8329V7.16626C17.4997 6.87399 17.4225 6.58693 17.2763 6.33389C17.13 6.08086 16.9198 5.87073 16.6667 5.72459L10.8333 2.39126C10.58 2.24498 10.2926 2.16797 10 2.16797C9.70744 2.16797 9.42003 2.24498 9.16667 2.39126L3.33333 5.72459C3.08022 5.87073 2.86998 6.08086 2.72372 6.33389C2.57745 6.58693 2.5003 6.87399 2.5 7.16626V13.8329C2.5003 14.1252 2.57745 14.4122 2.72372 14.6653C2.86998 14.9183 3.08022 15.1285 3.33333 15.2746L9.16667 18.6079Z" stroke="#71717A" stroke-width="1.45833" stroke-linecap="round" stroke-linejoin="round"/>
</svg>
